{"title":"Taken.From.Me.-.The.Tiffany.Rubin.Story.[2011].DvdRip.XviD-KnÃƒÂ£","uid":6534912,"size":939970560,"categoryP":"video","categoryS":"movies","magnet":"?xt=urn:btih:da17592ec55d14337e8a5f0040f20ccf62684b9d&amp;dn=Taken.From.Me.-.The.Tiffany.Rubin.Story.%5B2011%5D.DvdRip.XviD-Kn%C3%83%C2%A3&amp;tr=udp%3A%2F%2Ftracker.openbittorrent.com%3A80&amp;tr=udp%3A%2F%2Fopen.demonii.com%3A1337&amp;tr=udp%3A%2F%2Ftracker.coppersurfer.tk%3A6969&amp;tr=udp%3A%2F%2Fexodus.desync.com%3A6969","seeders":2,"leechers":1,"uploader":"Jon.Pson","files":1,"time":1310478066,"description":"This fact-based Lifetime drama follows one mother's,(Tiffany Rubin played by Taraji P. Henson) nightmarish struggle to retrieve the 7-year-old son,(Kobe played by Drew Davis)her ex-husband whisked out of her life when he abducted the boy and took him back to his native South Korea.\n\nGeneral\nComplete name                    : Z:\\Movies\\Taken.From.Me.-.The.Tiffany.Rubin.Story.[2011].DvdRip.XviD-KnÃƒÂ£\\Taken.From.Me.-.The.Tiffany.Rubin.Story.[2011].DvdRip.XviD-KnÃƒÂ£.avi\nFormat                           : AVI\nFormat/Info                      : Audio Video Interleave\nFile size                        : 896 MiB\nDuration                         : 1h 27mn\nOverall bit rate                 : 1 440 Kbps\nWriting application              : VirtualDubMod 1.5.4.1 (build 2178/release)\nWriting library                  : VirtualDubMod build 2178/release\n\nVideo\nID                               : 0\nFormat                           : MPEG-4 Visual\nFormat profile                   : Advanced Simple@L5\nFormat settings, BVOP            : 1\nFormat settings, QPel            : No\nFormat settings, GMC             : No warppoints\nFormat settings, Matrix          : Custom\nCodec ID                         : XVID\nCodec ID/Hint                    : XviD\nDuration                         : 1h 27mn\nBit rate                         : 1 209 Kbps\nWidth                            : 720 pixels\nHeight                           : 416 pixels\nDisplay aspect ratio             : 16:9\nFrame rate                       : 23.976 fps\nColor space                      : YUV\nChroma subsampling               : 4:2:0\nBit depth                        : 8 bits\nScan type                        : Progressive\nCompression mode                 : Lossy\nBits/(Pixel*Frame)               : 0.168\nStream size                      : 753 MiB (84%)\nWriting library                  : XviD 1.2.1 (UTC 2008-12-04)\n\nAudio\nID                               : 1\nFormat                           : AC-3\nFormat/Info                      : Audio Coding 3\nMode extension                   : CM (complete main)\nCodec ID                         : 2000\nDuration                         : 1h 27mn\nBit rate mode                    : Constant\nBit rate                         : 224 Kbps\nChannel(s)                       : 2 channels\nChannel positions                : Front: L R\nSampling rate                    : 48.0 KHz\nBit depth                        : 16 bits\nCompression mode                 : Lossy\nStream size                      : 139 MiB (16%)\nAlignment                        : Split accross interleaves\nInterleave, duration             : 96 ms (2.30 video frames)\nInterleave, preload duration     : 96 ms\nLanguage                         : English\n\n","torrent":{"xt":"urn:btih:da17592ec55d14337e8a5f0040f20ccf62684b9d","amp;dn":"Taken.From.Me.-.The.Tiffany.Rubin.Story.%5B2011%5D.DvdRip.XviD-Kn%C3%83%C2%A3","amp;tr":["udp%3A%2F%2Ftracker.openbittorrent.com%3A80","udp%3A%2F%2Fopen.demonii.com%3A1337","udp%3A%2F%2Ftracker.coppersurfer.tk%3A6969","udp%3A%2F%2Fexodus.desync.com%3A6969"],"infoHash":"da17592ec55d14337e8a5f0040f20ccf62684b9d","infoHashBuffer":{"type":"Buffer","data":[218,23,89,46,197,93,20,51,126,138,95,0,64,242,12,207,98,104,75,157]},"announce":[],"urlList":[]}}